<?xml version="1.0" encoding="UTF-8"?>
<svg width="28px" height="29px" viewBox="0 0 28 29" version="1.1" xmlns="http://www.w3.org/2000/svg" xmlns:xlink="http://www.w3.org/1999/xlink">
    <!-- Generator: Sketch 49.2 (51160) - http://www.bohemiancoding.com/sketch -->
    <title>Combined Shape</title>
    <desc>Created with Sketch.</desc>
    <defs></defs>
    <g id="Page-1" stroke="none" stroke-width="1" fill="none" fill-rule="evenodd">
        <g id="Help" transform="translate(-16.000000, -460.000000)" fill="#CDDD21">
            <g id="Group-3-Copy" transform="translate(0.000000, 422.000000)">
                <path d="M16,51.9914008 C16,44.2641635 22.2663135,38 30,38 C37.7319865,38 44,44.266363 44,51.9914008 L44,52.3232059 C44,60.0504432 37.7336865,66.3146067 30,66.3146067 C22.2680135,66.3146067 16,60.0482437 16,52.3232059 L16,51.9914008 Z M29.75,45 C29.336,45 29,45.3248 29,45.725 L29,50.8 C29,51.0001 28.832,51.1625 28.625,51.1625 C28.418,51.1625 28.25,51.0001 28.25,50.8 L28.25,46.45 C28.25,46.0498 27.914,45.725 27.5,45.725 C27.086,45.725 26.75,46.0498 26.75,46.45 L26.75,53.7 L26.75,54.5609375 L25.671875,53.7679688 C24.884375,53.1857938 23.78225,53.1792687 23,53.7679688 L26.7734375,58.5710938 C27.2271875,59.1496437 27.9453125,59.5 28.6953125,59.5 L32,59.5 C33.65675,59.5 35,58.201525 35,56.6 L35,55.15 L35,50.8 L35,47.9 C35,47.4998 34.664,47.175 34.25,47.175 C33.836,47.175 33.5,47.4998 33.5,47.9 L33.5,50.8 C33.5,51.0001 33.332,51.1625 33.125,51.1625 C32.918,51.1625 32.75,51.0001 32.75,50.8 L32.75,46.45 C32.75,46.0498 32.414,45.725 32,45.725 C31.586,45.725 31.25,46.0498 31.25,46.45 L31.25,50.8 C31.25,51.0001 31.082,51.1625 30.875,51.1625 C30.668,51.1625 30.5,51.0001 30.5,50.8 L30.5,45.725 C30.5,45.3248 30.164,45 29.75,45 Z" id="Combined-Shape"></path>
            </g>
        </g>
    </g>
</svg>